# Blender v2.91.2 OBJ File: ''
# www.blender.org
o Plane03_Mesh
v -0.356504 0.356083 -0.293309
v -0.356504 0.359631 0.281379
v -0.195161 0.492304 -0.293309
v -0.214733 0.492304 0.011186
v -0.339238 0.356083 -0.848515
v -0.195161 0.480215 -0.471555
v -0.351960 0.109441 -0.631508
v -0.373247 0.283562 0.814870
v -0.000000 0.289189 0.835640
v -0.000000 0.225207 0.856568
v -0.368157 0.106843 0.405324
v -0.392694 0.225766 0.835799
v -0.000000 0.105198 0.830417
v -0.358893 0.111005 0.805872
v -0.377609 0.101320 0.681935
v -0.067486 0.399121 -0.776603
v -0.238703 0.475568 -0.880874
v -0.067486 0.478750 -0.886198
v -0.067486 0.359201 -0.932303
v -0.252779 0.396555 -0.787273
v -0.266855 0.359500 -0.923294
v -0.354484 0.109441 -0.349335
v -0.351960 0.001346 -0.486378
v -0.372231 0.003039 0.550157
v -0.351960 0.030865 -0.601335
v -0.354484 0.030865 -0.373549
v -0.369970 0.027101 0.438976
v -0.378515 0.027101 0.652744
v -0.350110 0.356083 -0.498901
v -0.365922 0.321997 0.582001
v -0.067486 0.318364 -0.856465
v -0.266855 0.280731 -0.951001
v -0.236411 0.109441 -0.631508
v -0.236411 0.106843 0.405324
v -0.236411 0.101320 0.681935
v -0.236411 0.109441 -0.349335
v -0.236411 0.001346 -0.486378
v -0.236411 0.003039 0.550292
v -0.236411 0.030865 -0.601335
v -0.236411 0.030865 -0.373549
v -0.236411 0.027101 0.439111
v -0.236411 0.027101 0.652744
v -0.067856 0.280731 -0.951001
v -0.339238 0.179921 -0.858425
v 0.356504 0.356083 -0.293309
v 0.356504 0.359631 0.281379
v 0.214733 0.492304 0.011186
v 0.195161 0.492304 -0.293309
v 0.195161 0.480215 -0.471555
v 0.350110 0.356083 -0.498901
v 0.354484 0.109441 -0.349335
v 0.365922 0.321997 0.582001
v 0.373247 0.283562 0.814870
v 0.392693 0.225766 0.835799
v 0.369049 0.106843 0.405324
v 0.358892 0.111005 0.805872
v 0.379407 0.101320 0.681935
v 0.067486 0.399121 -0.776603
v 0.252779 0.396555 -0.787273
v 0.067486 0.478750 -0.886198
v 0.238703 0.475568 -0.880874
v 0.067486 0.318364 -0.856465
v 0.067486 0.359201 -0.932303
v 0.266855 0.359500 -0.923294
v 0.339238 0.356083 -0.848515
v 0.339238 0.179921 -0.858425
v 0.351960 0.109441 -0.631508
v 0.351960 0.030865 -0.601335
v 0.351960 0.001346 -0.486378
v 0.354484 0.030865 -0.373549
v 0.370244 0.027101 0.439111
v 0.372511 0.003039 0.550292
v 0.377280 0.027101 0.652744
v 0.067856 0.280731 -0.951001
v 0.266855 0.280731 -0.951001
v 0.236411 0.109441 -0.631508
v 0.236411 0.030865 -0.601335
v 0.236411 0.001346 -0.486378
v 0.236411 0.030865 -0.373549
v 0.236411 0.106843 0.405324
v 0.236411 0.027101 0.439111
v 0.236411 0.003039 0.550292
v 0.236411 0.027101 0.652744
v 0.236411 0.109441 -0.349335
v 0.236411 0.101320 0.681935
v 0.066965 0.417508 -0.676497
v 0.033482 0.403444 -0.732515
v -0.033482 0.403444 -0.732514
v -0.066965 0.417508 -0.676497
v -0.033482 0.431573 -0.620480
v 0.033482 0.431573 -0.620480
v 0.044450 0.471608 -0.681661
v 0.022225 0.465345 -0.711806
v -0.022225 0.465345 -0.711806
v -0.044450 0.471608 -0.681661
v -0.022225 0.477872 -0.651516
v 0.022225 0.477872 -0.651516
v 0.022225 0.539777 -0.713780
v -0.022225 0.539777 -0.713780
v -0.022225 0.547406 -0.667271
v 0.022225 0.547406 -0.667271
vt 0.672463 0.440924
vt 0.250261 0.436353
vt 0.320140 0.590349
vt 0.640446 0.588238
vt 0.641045 0.980722
vt 0.324712 0.982805
vt 0.472924 0.903789
vt 0.640460 0.899797
vt 0.738574 0.898494
vt 0.754188 0.976457
vt 0.471366 0.667392
vt 0.639045 0.667302
vt 0.320140 0.590349
vt 0.159270 0.989080
vt 0.031116 0.993956
vt 0.001796 0.788689
vt 0.023406 0.562271
vt 0.153027 0.577749
vt 0.236172 0.122405
vt 0.013145 0.119467
vt 0.001484 0.075881
vt 0.236990 0.075881
vt 0.021742 0.005034
vt 0.237036 0.005034
vt 0.009192 0.510401
vt 0.095253 0.435986
vt 0.025940 0.441858
vt 0.903466 0.350585
vt 0.924148 0.153133
vt 0.829328 0.146951
vt 0.829329 0.326834
vt 0.829328 0.032321
vt 0.713849 0.054532
vt 0.713849 0.146942
vt 0.713850 0.363493
vt 0.992463 0.927680
vt 0.947322 0.970221
vt 0.911837 0.920819
vt 0.949116 0.590944
vt 0.957381 0.483019
vt 0.754663 0.589164
vt 0.830384 0.440924
vt 0.813497 0.393994
vt 0.749161 0.376363
vt 0.686015 0.393994
vt 0.023406 0.562271
vt 0.153027 0.577749
vt 0.231429 0.392010
vt 0.169184 0.377557
vt 0.111676 0.391787
vt 0.627435 0.131665
vt 0.627436 0.357803
vt 1.000071 0.543229
vt 0.993452 0.590059
vt 0.125546 0.371493
vt 0.115366 0.371493
vt 0.115366 0.332509
vt 0.125546 0.332509
vt 0.164330 0.332509
vt 0.202397 0.332509
vt 0.202397 0.372345
vt 0.164330 0.371493
vt 0.476982 0.377686
vt 0.465176 0.376958
vt 0.465176 0.332509
vt 0.476575 0.332509
vt 0.548652 0.380453
vt 0.514043 0.378332
vt 0.514086 0.332509
vt 0.548651 0.332509
vt 0.210567 0.372345
vt 0.210567 0.332509
vt 0.558532 0.380149
vt 0.558500 0.332509
vt 0.567111 0.101893
vt 0.505328 0.081216
vt 0.487854 0.022253
vt 0.640517 0.022251
vt 0.625926 0.081215
vt 0.567111 0.101893
vt 0.505328 0.081216
vt 0.487854 0.022253
vt 0.640517 0.022251
vt 0.625926 0.081215
vt 0.210567 0.172987
vt 0.465176 0.172987
vt 0.038807 0.368025
vt 0.249335 0.436766
vt 0.672463 0.440924
vt 0.640446 0.588238
vt 0.754663 0.589164
vt 0.737159 0.666558
vt 0.471822 0.075881
vt 0.459380 0.119439
vt 0.451669 0.005034
vt 0.009192 0.510401
vt 0.025940 0.441858
vt 0.095287 0.436037
vt 0.911037 0.643141
vt 0.905533 0.745587
vt 0.906023 0.819882
vt 0.903466 0.350585
vt 0.829329 0.326834
vt 0.829328 0.146951
vt 0.924148 0.153133
vt 0.713849 0.146942
vt 0.713849 0.054532
vt 0.829328 0.032321
vt 0.713850 0.363493
vt 0.993452 0.590059
vt 0.949116 0.590944
vt 0.957381 0.483019
vt 0.686015 0.393994
vt 0.749161 0.376363
vt 0.813497 0.393994
vt 0.830384 0.440924
vt 0.111695 0.391811
vt 0.169109 0.377546
vt 0.231345 0.391999
vt 0.949492 0.745297
vt 0.949982 0.819592
vt 0.627436 0.357803
vt 0.627435 0.131665
vt 1.000071 0.543229
vt 0.125546 0.134003
vt 0.125546 0.172987
vt 0.115366 0.172987
vt 0.115366 0.134003
vt 0.164330 0.172987
vt 0.164330 0.134003
vt 0.202397 0.133151
vt 0.202397 0.172987
vt 0.476574 0.127834
vt 0.476575 0.172987
vt 0.465167 0.128237
vt 0.548657 0.125460
vt 0.548651 0.172987
vt 0.514086 0.172987
vt 0.514086 0.127069
vt 0.210567 0.133151
vt 0.558500 0.124742
vt 0.558500 0.172987
vt 0.487854 0.022253
vt 0.505328 0.081216
vt 0.567111 0.101893
vt 0.640517 0.022251
vt 0.625926 0.081215
vt 0.487854 0.022253
vt 0.505328 0.081216
vt 0.567111 0.101893
vt 0.640517 0.022251
vt 0.625926 0.081215
vt 0.010514 0.344691
vt 0.010515 0.276585
vt 0.038809 0.137471
vt 0.010515 0.230139
vt 0.010516 0.162033
vt 0.600314 0.373832
vt 0.600314 0.131663
vt 0.618730 0.252748
vt 0.998958 0.341354
vt 0.941151 0.444792
vt 0.920860 0.387423
vt 0.958407 0.337995
vt 0.831851 0.437463
vt 0.848720 0.385269
vt 0.960607 0.235138
vt 0.998958 0.341354
vt 0.958407 0.337995
vt 0.923159 0.286912
vt 0.941151 0.444792
vt 0.920860 0.387423
vt 0.831851 0.437463
vt 0.848720 0.385269
vt 0.960607 0.235138
vt 0.923159 0.286912
vt 0.663373 0.370768
vt 0.663373 0.425745
vt 0.611029 0.425745
vt 0.611029 0.370768
vt 0.931474 0.005859
vt 0.996933 0.005859
vt 0.996933 0.117437
vt 0.931474 0.117437
vt 0.931474 0.005859
vt 0.839718 0.005859
vt 0.862027 0.117437
vt 0.931474 0.117437
vt 0.931474 0.117437
vt 0.996933 0.117437
vt 0.996933 0.229238
vt 0.931474 0.229238
vt 0.839718 0.005859
vt 0.862027 0.117437
vt 1.002020 0.819453
vt 1.001528 0.744751
vn -0.9991 0.0372 -0.0180
vn -0.9991 0.0328 -0.0273
vn -0.9991 0.0335 -0.0262
vn -1.0000 -0.0082 0.0001
vn -0.6878 0.7259 -0.0045
vn -0.6446 0.7634 -0.0414
vn -0.6444 0.7633 -0.0466
vn -0.6443 0.7631 -0.0512
vn -0.6442 0.7631 -0.0518
vn -0.6230 0.7820 -0.0194
vn 0.0000 1.0000 0.0000
vn 0.0000 0.8976 0.4408
vn -0.0239 0.9865 0.1621
vn 0.0239 0.9865 0.1621
vn 0.0000 0.9918 0.1274
vn 0.0000 0.9917 0.1283
vn -0.0000 0.9918 0.1277
vn -0.0573 0.3569 0.9324
vn -0.0498 0.3105 0.9493
vn -0.0513 -0.2661 0.9626
vn -0.0701 -0.2124 0.9747
vn -0.9334 -0.3182 0.1658
vn -0.0450 0.8082 0.5872
vn 0.0059 0.7637 0.6456
vn 1.0000 -0.0000 0.0000
vn 1.0000 -0.0013 -0.0007
vn 1.0000 -0.0038 -0.0022
vn -0.9743 0.2215 0.0405
vn -0.0364 0.3584 -0.9328
vn -0.0357 0.3596 -0.9324
vn -0.0412 0.3528 -0.9348
vn -0.0417 0.3519 -0.9351
vn -0.2773 0.9339 -0.2257
vn -0.9995 0.0017 -0.0311
vn -0.4164 0.9091 -0.0129
vn -0.6119 0.7850 -0.0964
vn -1.0000 0.0012 0.0008
vn -1.0000 0.0000 0.0000
vn -1.0000 0.0010 0.0007
vn -1.0000 0.0054 0.0040
vn -0.9997 0.0069 -0.0239
vn -0.9997 0.0075 -0.0243
vn -0.9995 0.0033 -0.0299
vn -0.9997 0.0035 -0.0232
vn -0.9995 -0.0011 -0.0311
vn 0.0000 0.9923 0.1242
vn -0.9382 0.2184 -0.2686
vn -0.9988 0.0418 -0.0245
vn -0.9991 0.0327 -0.0272
vn -0.9997 0.0167 -0.0162
vn -0.9997 0.0156 -0.0170
vn -0.9997 0.0211 -0.0130
vn -0.9967 0.0399 -0.0704
vn -0.9979 0.0257 -0.0599
vn -0.9984 0.0322 -0.0460
vn -0.0436 0.2318 -0.9718
vn 0.0000 0.3318 -0.9433
vn -0.8046 0.0333 -0.5928
vn -0.7036 0.2358 -0.6703
vn 0.0000 -0.3585 -0.9335
vn -0.0000 -0.9674 0.2531
vn 0.0008 -0.3899 -0.9209
vn -0.0000 -0.3888 -0.9213
vn 0.0002 -0.3891 -0.9212
vn 0.0009 -0.3901 -0.9208
vn -0.0001 -0.9736 0.2285
vn -0.0002 -0.9736 0.2283
vn -0.0001 -0.9735 0.2285
vn -0.0000 -0.9735 0.2286
vn 0.0002 -0.9774 -0.2115
vn 0.0000 -0.9686 -0.2487
vn -0.0000 -0.2945 0.9557
vn -0.0000 -0.3660 0.9306
vn -0.0000 -1.0000 -0.0034
vn -0.0000 -1.0000 -0.0003
vn -0.0000 -1.0000 -0.0039
vn -0.0000 -0.9550 -0.2966
vn 0.9990 0.0371 -0.0259
vn 0.9990 0.0383 -0.0230
vn 0.9990 0.0402 -0.0191
vn 1.0000 -0.0082 0.0001
vn 0.6443 0.7631 -0.0512
vn 0.6444 0.7633 -0.0466
vn 0.6446 0.7634 -0.0414
vn 0.6878 0.7259 -0.0045
vn 0.6230 0.7820 -0.0194
vn 0.6442 0.7631 -0.0518
vn 0.0000 0.9977 -0.0677
vn 0.0498 0.3105 0.9493
vn 0.0573 0.3569 0.9324
vn 0.0701 -0.2124 0.9747
vn 0.0513 -0.2661 0.9626
vn 0.9301 -0.3206 0.1790
vn -0.0011 0.9665 -0.2565
vn -0.0014 0.9666 -0.2564
vn -0.0005 0.9665 -0.2567
vn 0.0011 0.9665 -0.2565
vn 0.0014 0.9666 -0.2564
vn 0.0004 0.9665 -0.2567
vn -0.0059 0.7637 0.6456
vn 0.0450 0.8082 0.5872
vn -1.0000 -0.0038 -0.0022
vn -1.0000 -0.0013 -0.0007
vn 0.9743 0.2215 0.0405
vn 0.0364 0.3584 -0.9328
vn 0.0417 0.3519 -0.9351
vn 0.0412 0.3528 -0.9348
vn 0.0357 0.3596 -0.9324
vn 0.2773 0.9339 -0.2257
vn 0.9995 0.0017 -0.0311
vn 0.6119 0.7850 -0.0964
vn 0.4164 0.9091 -0.0129
vn 0.9997 0.0035 -0.0232
vn 0.9995 -0.0011 -0.0311
vn 0.9995 0.0033 -0.0299
vn 0.9997 0.0075 -0.0243
vn 0.9997 0.0069 -0.0239
vn 1.0000 0.0010 0.0007
vn 1.0000 0.0012 0.0008
vn 1.0000 0.0054 0.0040
vn 0.9985 0.0506 -0.0231
vn 0.9396 0.2218 -0.2605
vn 0.9990 -0.0114 -0.0438
vn 0.9969 0.0279 -0.0730
vn 0.9998 0.0070 -0.0189
vn 0.9997 0.0215 -0.0085
vn 0.9990 0.0365 -0.0267
vn 0.9984 0.0322 -0.0460
vn 0.0000 0.7032 -0.7110
vn 0.0436 0.2318 -0.9718
vn 0.7036 0.2358 -0.6703
vn 0.8046 0.0333 -0.5928
vn -0.0000 -0.3901 -0.9208
vn -0.0000 -0.9774 -0.2115
vn -0.0000 -1.0000 -0.0000
vn 0.0000 -0.6764 -0.7365
vn 0.0000 -0.9970 0.0779
vn -0.0000 -0.9998 -0.0200
vn 0.0201 -0.9981 0.0581
vn -0.0000 -0.9997 0.0261
vn -0.0201 -0.9981 0.0581
vn 0.7745 0.3228 -0.5440
vn 0.7522 0.2551 -0.6076
vn -0.0000 0.3173 -0.9483
vn -0.7922 0.2779 -0.5433
vn -0.7244 0.3336 -0.6034
vn -0.8125 0.4478 0.3732
vn -0.7821 0.3731 0.4991
vn 0.0000 0.5568 0.8306
vn 0.8317 0.3844 0.4006
vn 0.7491 0.4848 0.4515
vn 0.0000 0.9791 -0.2034
vn -0.0000 0.9868 -0.1619
vn -0.0000 -0.0265 -0.9996
vn 0.0000 0.2210 0.9753
vn 0.0000 0.9291 -0.3699
vn -1.0000 -0.0042 -0.0022
vn 1.0000 -0.0042 -0.0022

s 1
f 22/1/1 11/2/2 2/3/3
f 2/3/4 1/4/4 22/1/4
f 1/5/5 2/6/5 4/7/5
f 4/7/6 3/8/7 1/5/8
f 1/5/8 3/8/7 6/9/9
f 6/9/10 29/10/10 1/5/10
f 3/8/11 4/7/11 47/11/11
f 47/11/11 48/12/11 3/8/11
f 4/7/12 2/6/12 46/13/12
f 46/13/12 47/11/12 4/7/12
f 30/14/13 8/15/13 9/16/13
f 9/16/14 53/17/14 52/18/14
f 30/14/15 9/16/16 52/18/17
f 9/19/18 8/20/18 12/21/18
f 12/21/19 10/22/19 9/19/19
f 10/22/20 12/21/20 14/23/20
f 14/23/21 13/24/21 10/22/21
f 12/25/22 15/26/22 14/27/22
f 20/28/23 16/29/23 18/30/23
f 18/30/24 17/31/24 20/28/24
f 18/30/25 16/32/25 31/33/26
f 31/33/26 19/34/27 18/30/25
f 17/31/28 21/35/28 20/28/28
f 17/31/29 18/30/30 19/34/31
f 19/34/31 21/35/32 17/31/29
f 21/36/33 5/37/33 20/38/33
f 5/39/34 44/40/34 29/41/34
f 20/38/35 5/37/35 29/10/35
f 29/10/36 6/9/36 20/38/36
f 7/42/37 25/43/38 23/44/39
f 29/41/40 7/42/37 23/44/39
f 23/44/41 26/45/42 22/1/43
f 29/41/44 23/44/41 22/1/43
f 29/41/44 22/1/43 1/4/45
f 46/13/46 2/6/46 30/14/15
f 30/14/15 52/18/17 46/13/46
f 15/26/47 12/25/47 8/46/47
f 8/46/48 30/47/48 15/26/48
f 30/47/49 2/3/3 11/2/2
f 11/2/50 27/48/51 24/49/50
f 30/47/52 11/2/50 24/49/50
f 24/49/53 28/50/53 15/26/53
f 30/47/54 24/49/54 15/26/54
f 44/40/55 7/42/55 29/41/55
f 21/35/56 19/34/56 43/51/56
f 43/51/57 32/52/57 21/35/57
f 32/53/58 44/40/58 5/39/58
f 5/39/59 21/54/59 32/53/59
f 25/55/60 7/56/60 33/57/60
f 33/57/60 39/58/60 25/55/60
f 37/59/61 40/60/61 26/61/61
f 26/61/61 23/62/61 37/59/61
f 27/63/62 11/64/63 34/65/64
f 34/65/64 41/66/65 27/63/62
f 28/67/66 24/68/67 38/69/68
f 38/69/68 42/70/69 28/67/66
f 27/63/70 41/66/70 38/69/70
f 38/69/70 24/68/70 27/63/70
f 23/62/71 25/55/71 39/58/71
f 39/58/71 37/59/71 23/62/71
f 22/71/72 26/61/72 40/60/72
f 40/60/72 36/72/72 22/71/72
f 15/73/73 28/67/73 42/70/73
f 42/70/73 35/74/73 15/73/73
f 38/75/25 41/76/25 34/77/25
f 38/75/25 34/77/25 35/78/25
f 42/79/25 38/75/25 35/78/25
f 37/80/25 39/81/25 33/82/25
f 37/80/25 33/82/25 36/83/25
f 40/84/25 37/80/25 36/83/25
f 34/65/74 36/72/75 84/85/76
f 84/85/76 80/86/74 34/65/74
f 22/71/74 36/72/75 34/65/74
f 34/65/74 11/64/74 22/71/74
f 44/87/77 33/57/77 7/56/77
f 46/13/78 55/88/79 51/89/80
f 51/89/81 45/90/81 46/13/81
f 45/90/82 48/12/83 47/11/84
f 47/11/85 46/13/85 45/90/85
f 45/90/86 50/91/86 49/92/86
f 49/92/87 48/12/83 45/90/82
f 6/9/88 3/8/88 48/12/88
f 48/12/88 49/92/88 6/9/88
f 9/19/89 10/22/89 54/93/89
f 54/93/90 53/94/90 9/19/90
f 10/22/91 13/24/91 56/95/91
f 56/95/92 54/93/92 10/22/92
f 54/96/93 56/97/93 57/98/93
f 49/92/94 59/99/95 58/100/96
f 16/101/97 20/38/98 6/9/99
f 58/100/96 16/101/97 6/9/99
f 49/92/94 58/100/96 6/9/99
f 59/102/100 61/103/100 60/104/100
f 60/104/101 58/105/101 59/102/101
f 60/104/38 63/106/102 62/107/103
f 62/107/103 58/108/38 60/104/38
f 61/103/104 59/102/104 64/109/104
f 61/103/105 64/109/106 63/106/107
f 63/106/107 60/104/108 61/103/105
f 64/110/109 59/99/109 65/111/109
f 65/111/110 50/91/110 66/112/110
f 59/99/111 49/92/111 50/91/111
f 50/91/112 65/111/112 59/99/112
f 50/91/113 45/90/114 51/89/115
f 51/89/115 70/113/116 69/114/117
f 50/91/113 51/89/115 69/114/117
f 69/114/118 68/115/25 67/116/119
f 50/91/120 69/114/118 67/116/119
f 57/98/121 52/18/121 53/17/121
f 53/17/122 54/96/122 57/98/122
f 57/98/123 73/117/123 72/118/123
f 52/18/124 57/98/124 72/118/124
f 72/118/125 71/119/125 55/88/125
f 52/18/126 72/118/126 55/88/126
f 52/18/127 55/88/79 46/13/78
f 66/112/128 50/91/128 67/116/128
f 62/120/129 31/121/129 16/101/129
f 16/101/129 58/100/129 62/120/129
f 64/109/57 75/122/57 74/123/57
f 74/123/130 63/106/130 64/109/130
f 75/124/131 64/110/131 65/111/131
f 65/111/132 66/112/132 75/124/132
f 68/125/60 77/126/60 76/127/60
f 76/127/60 67/128/60 68/125/60
f 78/129/61 69/130/61 70/131/61
f 70/131/61 79/132/61 78/129/61
f 71/133/133 81/134/133 80/86/133
f 80/86/133 55/135/133 71/133/133
f 73/136/69 83/137/69 82/138/69
f 82/138/69 72/139/69 73/136/69
f 71/133/134 72/139/134 82/138/134
f 82/138/134 81/134/134 71/133/134
f 69/130/71 78/129/71 77/126/71
f 77/126/71 68/125/71 69/130/71
f 51/140/72 84/85/72 79/132/72
f 79/132/72 70/131/72 51/140/72
f 57/141/73 85/142/73 83/137/73
f 83/137/73 73/136/73 57/141/73
f 80/143/38 81/144/38 82/145/38
f 85/146/38 80/143/38 82/145/38
f 83/147/38 85/146/38 82/145/38
f 76/148/38 77/149/38 78/150/38
f 84/151/38 76/148/38 78/150/38
f 79/152/38 84/151/38 78/150/38
f 36/72/75 33/57/135 76/127/135
f 76/127/135 84/85/76 36/72/75
f 80/86/74 84/85/76 51/140/74
f 51/140/74 55/135/74 80/86/74
f 44/87/136 32/153/136 43/154/136
f 66/155/136 44/87/136 43/154/136
f 66/155/136 43/154/136 74/156/136
f 75/157/136 66/155/136 74/156/136
f 76/127/77 33/57/77 44/87/77
f 44/87/77 66/155/77 76/127/77
f 66/155/77 67/128/77 76/127/77
f 14/158/137 15/73/137 35/74/137
f 34/65/138 80/86/138 85/142/138
f 35/74/138 34/65/138 85/142/138
f 85/142/137 57/141/137 56/159/137
f 85/142/139 56/159/139 13/160/139
f 35/74/140 85/142/140 13/160/140
f 14/158/141 35/74/141 13/160/141
f 86/161/142 87/162/142 93/163/142
f 93/163/143 92/164/143 86/161/143
f 87/162/144 88/165/144 94/166/144
f 94/166/144 93/163/144 87/162/144
f 88/167/145 89/168/145 95/169/145
f 95/169/146 94/170/146 88/167/146
f 89/168/147 90/171/147 96/172/147
f 96/172/148 95/169/148 89/168/148
f 90/171/149 91/173/149 97/174/149
f 97/174/149 96/172/149 90/171/149
f 91/175/150 86/161/150 92/164/150
f 92/164/151 97/176/151 91/175/151
f 94/170/152 95/169/152 96/172/152
f 101/177/153 98/178/153 99/179/153
f 99/179/153 100/180/153 101/177/153
f 97/176/152 92/164/152 93/163/152
f 93/181/154 94/182/154 99/183/154
f 99/183/154 98/184/154 93/181/154
f 94/185/38 96/186/38 100/187/38
f 100/187/38 99/188/38 94/185/38
f 96/189/155 97/190/155 101/191/155
f 101/191/155 100/192/155 96/189/155
f 97/193/25 93/181/25 98/184/25
f 98/184/25 101/194/25 97/193/25
f 43/195/156 31/121/156 62/120/156
f 62/120/156 74/196/156 43/195/156
f 63/106/102 74/123/157 62/107/103
f 31/33/26 43/51/158 19/34/27
